:SAMPLES-PER-SECOND 30
:FULLY-SPECIFIED
:DEGREES
197
root  -55.4307 40.0787 -2.46849 -10.3113 -79.61 19.5167
RightUpLeg  -21.2662 -8.41275 -5.20418
RightLeg  19.2528 0.442531 -0.0389299
RightFoot  -4.88708 -0.104874 1.3291
RightToes  -4.65661e-009 0 -3.6325e-017
Spine  26.0161 1.7159 20.2215
Spine1  3.4239 10.118 -18.0592
HEad  -39.634 -36.5632 16.6196
LeftShoulder1  0.431506 2.31981 -30.3381
LeftArm  6.53499 9.03475 -42.2782
LeftForeArm  27.9794 -37.2699 -6.81757
LeftHand  -0.0505653 6.99131 -0.633705
RightShoulder  0.238384 -2.64339 22.2083
RightArm  -33.8826 41.6051 22.7224
RightForeArm  2.3113 60.695 20.3816
RightHand  -1.10865 6.89821 -10.8106
LeftUpLeg  -22.1802 -0.81497 -0.69391
LeftLeg  8.63381 -11.7513 -0.861284
LeftFoot  5.4355 -0.166717 0.907542
LeftToes  9.86798e-010 -1.28139e-010 1.4132e-011
198
root  -55.3367 40.0882 -2.50858 -10.9207 -79.4731 20.1057
RightUpLeg  -21.3376 -8.24341 -5.34523
RightLeg  19.1823 0.235783 -0.121612
RightFoot  -4.79591 -0.110441 1.41235
RightToes  -4.65661e-009 0 -3.6325e-017
Spine  26.1253 1.55456 19.7811
Spine1  3.56484 9.89647 -17.7614
HEad  -39.6951 -36.135 16.3881
LeftShoulder1  0.468743 2.21768 -30.354
LeftArm  5.84107 9.7081 -41.9483
LeftForeArm  27.5612 -37.8343 -7.0003
LeftHand  -0.0275527 5.82332 0.73474
RightShoulder  0.146471 -2.97711 22.9309
RightArm  -37.3352 42.2288 24.4957
RightForeArm  4.95197 64.2912 23.9203
RightHand  -1.48941 9.5615 -11.9089
LeftUpLeg  -21.8453 -0.752191 -0.964799
LeftLeg  7.68116 -12.0038 -0.456462
LeftFoot  5.91369 -0.13407 0.646699
LeftToes  9.86798e-010 -1.28139e-010 1.4132e-011
199
root  -55.2614 40.0938 -2.53232 -11.9278 -79.6997 21.0465
RightUpLeg  -21.4019 -7.9709 -5.43149
RightLeg  19.1096 0.240534 -0.120976
RightFoot  -4.66577 -0.107388 1.36111
RightToes  -4.65661e-009 0 -3.6325e-017
Spine  26.2289 1.55581 19.3849
Spine1  3.42588 9.85209 -17.8351
HEad  -39.1871 -35.9727 16.4097
LeftShoulder1  0.491771 2.14613 -30.1346
LeftArm  6.45525 9.39676 -41.9431
LeftForeArm  27.6608 -36.5394 -6.63784
LeftHand  -0.0334387 6.65007 0.130952
RightShoulder  0.293796 -2.4562 22.3644
RightArm  -38.5642 42.1689 25.7177
RightForeArm  7.36587 64.1303 23.4787
RightHand  -1.16586 5.64955 -12.5725
LeftUpLeg  -21.5812 -0.429798 -1.07238
LeftLeg  7.12904 -12.0677 -0.360774
LeftFoot  6.20606 -0.127464 0.581449
LeftToes  9.86798e-010 -1.28139e-010 1.4132e-011
200
root  -55.2033 40.0895 -2.53608 -12.4423 -79.8938 21.4287
RightUpLeg  -21.3634 -7.66715 -5.46732
RightLeg  19.06 0.151086 -0.157811
RightFoot  -4.54545 -0.102162 1.27549
RightToes  -4.65661e-009 0 -3.6325e-017
Spine  26.0498 1.75892 19.2236
Spine1  3.38208 9.95582 -17.7917
HEad  -38.2724 -36.3147 16.5583
LeftShoulder1  0.45175 2.27652 -30.7081
LeftArm  8.01532 7.89257 -41.4608
LeftForeArm  27.2019 -34.7342 -6.18318
LeftHand  -0.0305176 5.42772 -0.191011
RightShoulder  0.354715 -2.23845 22.2423
RightArm  -37.3082 42.5145 24.753
RightForeArm  7.95176 59.9449 19.367
RightHand  -0.394455 -1.24633 -11.0186
LeftUpLeg  -21.4923 -0.237373 -1.02117
LeftLeg  7.08739 -12.1032 -0.49757
LeftFoot  6.17129 -0.145843 0.703724
LeftToes  9.86798e-010 -1.28139e-010 1.4132e-011
201
root  -55.1187 40.1274 -2.53646 -13.0101 -80.0001 21.6032
RightUpLeg  -20.824 -7.40382 -5.54224
RightLeg  18.5363 0.0654779 -0.193713
RightFoot  -4.19401 -0.0942725 1.14795
RightToes  -4.65661e-009 0 -3.6325e-017
Spine  26.1169 1.94937 18.8889
Spine1  3.3788 10.0554 -17.4082
HEad  -37.6448 -36.6991 15.899
LeftShoulder1  0.476936 2.20348 -30.593
LeftArm  8.80311 7.26069 -42.0781
LeftForeArm  27.5357 -33.5072 -5.85077
LeftHand  -0.0378815 6.05779 -0.640171
RightShoulder  0.433555 -1.92729 21.5603
RightArm  -33.671 43.1288 22.2057
RightForeArm  1.27817 51.0415 13.8653
RightHand  -0.549863 2.48532 -8.46629
LeftUpLeg  -20.7187 -0.190204 -1.18604
LeftLeg  6.11378 -12.1357 0.000803959
LeftFoot  6.61056 -0.13558 0.603558
LeftToes  9.86798e-010 -1.28139e-010 1.4132e-011
202
root  -55.0104 40.1168 -2.51825 -11.9574 -80.1136 20.3124
RightUpLeg  -20.7113 -7.33529 -5.33867
RightLeg  18.4262 0.0893687 -0.185054
RightFoot  -3.94767 -0.0872122 1.03277
RightToes  -4.65661e-009 0 -3.6325e-017
Spine  26.0417 1.96954 19.1804
Spine1  3.48482 10.1584 -17.4538
HEad  -37.7028 -36.8693 15.8752
LeftShoulder1  0.403351 2.41421 -30.913
LeftArm  9.40432 6.79651 -41.9913
LeftForeArm  27.972 -33.0392 -5.70887
LeftHand  -0.0487805 6.78993 -0.840166
RightShoulder  0.575309 -1.32001 20.2254
RightArm  -28.6852 43.5514 18.9917
RightForeArm  -5.43299 44.1623 11.1494
RightHand  -0.762454 7.27655 -7.24585
LeftUpLeg  -20.7948 -0.108993 -0.985603
LeftLeg  6.42891 -12.0967 -0.0610745
LeftFoot  6.56564 -0.129168 0.566346
LeftToes  9.86798e-010 -1.28139e-010 1.4132e-011
203
root  -54.8868 40.0908 -2.498 -11.7418 -80.1883 20.0117
RightUpLeg  -20.8866 -7.49578 -5.27479
RightLeg  18.5305 0.262652 -0.119735
RightFoot  -3.89042 -0.0795173 0.907317
RightToes  -4.65661e-009 0 -3.6325e-017
Spine  26.2267 2.08466 19.7484
Spine1  3.68088 10.5375 -17.791
HEad  -38.7292 -37.4765 16.481
LeftShoulder1  0.462155 2.25073 -30.7848
LeftArm  9.4886 6.85342 -41.9601
LeftForeArm  28.0824 -34.2074 -5.99825
LeftHand  -0.0420457 6.6562 -1.23872
RightShoulder  0.730746 -0.621185 18.9675
RightArm  -28.6579 41.7291 16.1328
RightForeArm  -4.66824 45.8799 11.941
RightHand  -0.667828 6.68431 -6.75218
LeftUpLeg  -21.025 -0.145721 -0.904041
LeftLeg  6.68904 -11.9867 -0.177171
LeftFoot  6.58118 -0.108934 0.43691
LeftToes  9.86798e-010 -1.28139e-010 1.4132e-011
204
root  -54.7769 40.0693 -2.47748 -12.0283 -80.0975 20.3374
RightUpLeg  -21.0841 -7.5916 -5.39926
RightLeg  18.5456 0.278436 -0.11603
RightFoot  -3.95403 -0.0914166 1.08559
RightToes  -4.65661e-009 0 -3.6325e-017
Spine  26.4988 1.99353 20.372
Spine1  3.97774 10.8197 -18.4223
HEad  -40.4789 -37.5258 17.4136
LeftShoulder1  0.506025 2.11728 -30.4054
LeftArm  8.33146 7.37332 -42.061
LeftForeArm  28.6489 -36.0284 -6.44005
LeftHand  -0.0225985 5.80299 -1.03228
RightShoulder  0.679979 -0.852498 19.4369
RightArm  -34.8762 39.512 15.1678
RightForeArm  0.00199724 53.7736 15.5334
RightHand  -0.60339 4.14648 -7.66937
LeftUpLeg  -21.2382 -0.327376 -1.00159
LeftLeg  6.69547 -11.8823 -0.186556
LeftFoot  6.68946 -0.0926246 0.327456
LeftToes  9.86798e-010 -1.28139e-010 1.4132e-011
